<svg width="16" height="17" viewBox="0 0 16 17" fill="none" xmlns="http://www.w3.org/2000/svg">
<path d="M4.99876 2.4975V4.49833" stroke="#737373" stroke-linecap="round" stroke-linejoin="round"/>
<path d="M11.0013 2.4975V4.49833" stroke="#737373" stroke-linecap="round" stroke-linejoin="round"/>
<rect x="1.9975" y="3.49791" width="12.005" height="11.0046" rx="2" stroke="#737373" stroke-linecap="round" stroke-linejoin="round"/>
<path d="M4.99872 11.1678H8.66691" stroke="#737373" stroke-linecap="round" stroke-linejoin="round"/>
<path d="M10.9179 11.2511C10.9639 11.2511 11.0013 11.2138 11.0013 11.1678C11.0013 11.1217 10.9639 11.0844 10.9179 11.0844C10.8718 11.0844 10.8345 11.1217 10.8345 11.1678C10.8345 11.2138 10.8718 11.2511 10.9179 11.2511" stroke="#737373" stroke-linecap="round" stroke-linejoin="round"/>
<path d="M11.0013 8.49999H7.24969" stroke="#737373" stroke-linecap="round" stroke-linejoin="round"/>
<path d="M5.08213 8.41662C5.03609 8.41662 4.99876 8.45395 4.99876 8.49999C4.99876 8.54603 5.03609 8.58336 5.08213 8.58336C5.12817 8.58336 5.1655 8.54603 5.1655 8.49999C5.1655 8.45395 5.12817 8.41662 5.08213 8.41662" stroke="#737373" stroke-linecap="round" stroke-linejoin="round"/>
</svg>
