<svg width="16" height="16" viewBox="0 0 16 16" fill="none" xmlns="http://www.w3.org/2000/svg">
<path d="M12.6666 7.33333V5.21867C12.6666 4.86533 12.526 4.526 12.276 4.276L10.3906 2.39067C10.1406 2.14067 9.80131 2 9.44798 2H4.66665C3.92998 2 3.33331 2.59667 3.33331 3.33333V12.6667C3.33331 13.4033 3.92998 14 4.66665 14H7.33331" stroke="#737373" stroke-linecap="round" stroke-linejoin="round"/>
<path d="M12.6666 5.33333H9.99998C9.63198 5.33333 9.33331 5.03467 9.33331 4.66667V2" stroke="#737373" stroke-linecap="round" stroke-linejoin="round"/>
<path fill-rule="evenodd" clip-rule="evenodd" d="M11.4307 13.8047L13.804 11.4313C14.0647 11.1707 14.0647 10.7487 13.804 10.4887L12.7467 9.43132C12.486 9.17066 12.064 9.17066 11.804 9.43132L9.43068 11.8047C9.30535 11.93 9.23535 12.0993 9.23535 12.276V14H10.9594C11.136 14 11.3054 13.93 11.4307 13.8047Z" stroke="#737373" stroke-linecap="round" stroke-linejoin="round"/>
</svg>
