<svg width="17" height="16" viewBox="0 0 17 16" fill="none" xmlns="http://www.w3.org/2000/svg">
<path d="M12.5017 6.66612V5.21752C12.5017 4.86404 12.3609 4.52457 12.1108 4.27446L10.2247 2.38834C9.9746 2.13824 9.63512 1.99751 9.28164 1.99751H4.49832C3.76134 1.99751 3.16443 2.59443 3.16443 3.3314V12.6686C3.16443 13.4056 3.76134 14.0025 4.49832 14.0025H7.1661" stroke="#737373" stroke-linecap="round" stroke-linejoin="round"/>
<path d="M12.5017 5.33224H9.83388C9.46572 5.33224 9.16693 5.03344 9.16693 4.66529V1.99751" stroke="#737373" stroke-linecap="round" stroke-linejoin="round"/>
<path d="M11.5013 14.6695C9.84389 14.6695 8.5 13.3256 8.5 11.6682C8.5 10.0109 9.84389 8.66696 11.5013 8.66696C13.1593 8.66696 14.5025 10.0109 14.5025 11.6682C14.5025 13.3256 13.1593 14.6695 11.5013 14.6695" stroke="#737373" stroke-linecap="round" stroke-linejoin="round"/>
<path d="M11.5019 11.5568V10.4557" stroke="#737373" stroke-linecap="round" stroke-linejoin="round"/>
<path d="M11.5012 12.772C11.4712 12.772 11.4465 12.7967 11.4472 12.8267C11.4472 12.8567 11.4719 12.8814 11.5019 12.8814C11.5319 12.8814 11.5559 12.8567 11.5559 12.8267C11.5559 12.7967 11.5319 12.772 11.5012 12.772" stroke="#737373" stroke-linecap="round" stroke-linejoin="round"/>
</svg>
