<svg width="16" height="16" viewBox="0 0 16 16" fill="none" xmlns="http://www.w3.org/2000/svg">
<path d="M13.8617 6.34901C14.3884 6.8757 14.3884 7.72962 13.8617 8.25631C13.335 8.783 12.4811 8.783 11.9544 8.25631C11.4277 7.72962 11.4277 6.8757 11.9544 6.34901C12.4811 5.82232 13.335 5.82232 13.8617 6.34901" stroke="#737373" stroke-linecap="round" stroke-linejoin="round"/>
<path d="M9.46837 3.94157C10.2794 4.75256 10.2794 6.06743 9.46837 6.87842C8.65739 7.68941 7.34251 7.68941 6.53152 6.87842C5.72053 6.06744 5.72053 4.75256 6.53152 3.94157C7.34251 3.13058 8.65738 3.13058 9.46837 3.94157" stroke="#737373" stroke-linecap="round" stroke-linejoin="round"/>
<path d="M4.04566 6.34901C4.57235 6.8757 4.57235 7.72962 4.04566 8.25631C3.51898 8.783 2.66505 8.783 2.13836 8.25631C1.61168 7.72962 1.61168 6.8757 2.13836 6.34901C2.66505 5.82232 3.51898 5.82232 4.04566 6.34901" stroke="#737373" stroke-linecap="round" stroke-linejoin="round"/>
<path d="M15.3333 12.6667V11.936C15.3333 11.0153 14.5873 10.2693 13.6666 10.2693H13.1326" stroke="#737373" stroke-linecap="round" stroke-linejoin="round"/>
<path d="M0.666687 12.6667V11.936C0.666687 11.0153 1.41269 10.2693 2.33335 10.2693H2.86735" stroke="#737373" stroke-linecap="round" stroke-linejoin="round"/>
<path d="M11.5593 12.6667V11.5993C11.5593 10.3107 10.5147 9.26601 9.226 9.26601H6.77334C5.48467 9.26601 4.44 10.3107 4.44 11.5993V12.6667" stroke="#737373" stroke-linecap="round" stroke-linejoin="round"/>
</svg>
