<svg width="25" height="24" viewBox="0 0 25 24" fill="none" xmlns="http://www.w3.org/2000/svg">
<path fill-rule="evenodd" clip-rule="evenodd" d="M15.5012 19.4031V10.8625C15.5012 10.4373 15.3322 10.0302 15.032 9.73005L12.7691 7.4671C12.469 7.16698 12.0618 6.99791 11.6366 6.99791H6.09731C5.21294 6.99791 4.49664 7.71421 4.49664 8.59858V19.4031C4.49664 20.2874 5.21294 21.0037 6.09731 21.0037H13.9006C14.7849 21.0037 15.5012 20.2874 15.5012 19.4031Z" stroke="#163300" stroke-width="1.5" stroke-linecap="round" stroke-linejoin="round"/>
<path d="M15.5012 17.0021H18.9026C19.787 17.0021 20.5033 16.2858 20.5033 15.4014V6.86086C20.5033 6.43568 20.3342 6.02851 20.0341 5.72838L17.7712 3.46544C17.471 3.16532 17.0639 2.99625 16.6387 2.99625H11.0994C10.215 2.99625 9.49872 3.71254 9.49872 4.59691V6.99791" stroke="#163300" stroke-width="1.5" stroke-linecap="round" stroke-linejoin="round"/>
<path d="M20.5033 6.99791H17.302C16.8598 6.99791 16.5016 6.63976 16.5016 6.19758V2.99625" stroke="#163300" stroke-width="1.5" stroke-linecap="round" stroke-linejoin="round"/>
<path d="M15.5012 10.9996H12.2999C11.8577 10.9996 11.4996 10.6414 11.4996 10.1992V6.99791" stroke="#163300" stroke-width="1.5" stroke-linecap="round" stroke-linejoin="round"/>
</svg>
